<svg xmlns="http://www.w3.org/2000/svg" width="33.368" height="33.046" viewBox="0 0 33.368 33.046">
  <g id="Group_29" data-name="Group 29" transform="translate(-1886 -1686)">
    <path id="hi" d="M4.861,22.611a3.28,3.28,0,0,1-3.472-3.472.694.694,0,0,0-1.389,0A4.747,4.747,0,0,0,4.861,24a.694.694,0,0,0,0-1.389ZM16.667.389a.694.694,0,1,0,0,1.389,5.755,5.755,0,0,1,5.556,5.556.694.694,0,0,0,1.389,0A6.745,6.745,0,0,0,16.667.389Z" transform="translate(1891 1690.611)" fill="rgba(45,45,45,0.5)"/>
    <path id="hi-2" data-name="hi" d="M6.87,31.491a4.614,4.614,0,0,1-4.907-4.86.967.967,0,0,0-.287-.687.988.988,0,0,0-1.388,0A.967.967,0,0,0,0,26.631a6.676,6.676,0,0,0,6.87,6.8.987.987,0,0,0,.694-.285.965.965,0,0,0,0-1.375A.986.986,0,0,0,6.87,31.491ZM23.554.389a.987.987,0,0,0-.694.285.965.965,0,0,0,0,1.375.987.987,0,0,0,.694.285,8.1,8.1,0,0,1,7.851,7.775.967.967,0,0,0,.287.687.988.988,0,0,0,1.388,0,.967.967,0,0,0,.287-.687A9.486,9.486,0,0,0,23.554.389Z" transform="translate(1886 1685.611)" fill="rgba(45,45,45,0.5)"/>
    <path id="hand" d="M.954,10.982h0v0l-.005-.008-.021-.034c-.018-.031-.043-.076-.069-.132a1.606,1.606,0,0,1-.136-.451,1.118,1.118,0,0,1,.064-.576,1.313,1.313,0,0,1,.5-.588h0a1.312,1.312,0,0,1,.73-.258,1.119,1.119,0,0,1,.56.148,1.607,1.607,0,0,1,.372.29c.043.045.076.084.1.112l.025.032.006.008v0h0l3.646,5.318.088.128.08-.134a7.021,7.021,0,0,1,.411-.612l.043-.057-.041-.059L2.247,6.728h0v0L2.24,6.718l-.021-.034c-.018-.031-.043-.076-.069-.132A1.605,1.605,0,0,1,2.014,6.1a1.118,1.118,0,0,1,.064-.576,1.313,1.313,0,0,1,.5-.588h0a1.313,1.313,0,0,1,.73-.258,1.119,1.119,0,0,1,.56.148,1.606,1.606,0,0,1,.372.29c.043.045.076.084.1.112l.025.032.006.008v0h0l4.76,6.942.061.09.084-.069c.177-.144.357-.288.543-.43l.076-.058-.054-.078L4.325,3.619h0v0l-.005-.008L4.3,3.574c-.018-.031-.043-.076-.069-.132a1.606,1.606,0,0,1-.136-.451,1.118,1.118,0,0,1,.064-.576,1.313,1.313,0,0,1,.5-.588h0a1.313,1.313,0,0,1,.73-.258,1.119,1.119,0,0,1,.56.148,1.607,1.607,0,0,1,.372.29c.043.045.076.084.1.112l.025.032.006.008v0h0l5.519,8.048.054.078.081-.05c.145-.089.289-.169.434-.25l.168-.094.1-.054-.062-.09L7.581,2.228h0v0l-.005-.008-.021-.034c-.018-.031-.043-.076-.069-.132A1.607,1.607,0,0,1,7.348,1.6a1.119,1.119,0,0,1,.064-.576,1.313,1.313,0,0,1,.5-.588,1.313,1.313,0,0,1,.73-.258A1.119,1.119,0,0,1,9.2.326a1.607,1.607,0,0,1,.372.29c.043.045.076.084.1.112L9.7.76l.006.008v0h0l5.454,7.954h0l.773,1.128a7.061,7.061,0,0,0-1.744,9.736.806.806,0,0,0,.361.306.708.708,0,0,0,.364.042.948.948,0,0,0,.268-.081c.033-.015.06-.03.079-.041l.022-.014.006,0h0l-.056-.083.056.083.083-.056-.057-.083A6.848,6.848,0,0,1,14.064,14.5a6.846,6.846,0,0,1,3.031-4.358l.054-.037-.013-.065L16.122,4.967h0l0-.007h0v0l0-.01c0-.009-.005-.022-.009-.039-.007-.035-.016-.085-.023-.147a1.61,1.61,0,0,1,.015-.471,1.12,1.12,0,0,1,.244-.526,1.493,1.493,0,0,1,1.438-.408,1.12,1.12,0,0,1,.484.319,1.61,1.61,0,0,1,.26.393c.027.056.045.1.058.138l.013.038,0,.009v0h0l0,0,1.17,3.475A30.954,30.954,0,0,0,21.389,11.8a8.234,8.234,0,0,1-14.15,8.349L.954,10.982Z" transform="translate(1892.791 1693.322)" fill="#eaccb9" stroke="#2d2d2d" stroke-width="0.2"/>
  </g>
</svg>
