<svg xmlns="http://www.w3.org/2000/svg" width="67" height="67" viewBox="0 0 67 67">
  <g id="Group_28" data-name="Group 28" transform="translate(-1945 -1325)">
    <g id="Ellipse-robo" transform="translate(1930 1310)">
      <circle id="Ellipse_1" data-name="Ellipse 1" cx="33.5" cy="33.5" r="33.5" transform="translate(15 15)" fill="#fb8927"/>
    </g>
    <path id="Robo" d="M1.8,13.125H3.6v11.25H1.8a1.736,1.736,0,0,1-.689-.142,1.8,1.8,0,0,1-.584-.406,1.88,1.88,0,0,1-.39-.609A1.941,1.941,0,0,1,0,22.5V15a1.941,1.941,0,0,1,.136-.718,1.88,1.88,0,0,1,.39-.609,1.8,1.8,0,0,1,.584-.406,1.736,1.736,0,0,1,.689-.142Zm28.8-2.812V26.25A3.834,3.834,0,0,1,29.545,28.9,3.532,3.532,0,0,1,27,30H9a3.532,3.532,0,0,1-2.545-1.1A3.834,3.834,0,0,1,5.4,26.25V10.313a4.856,4.856,0,0,1,.342-1.794A4.7,4.7,0,0,1,6.718,7a4.491,4.491,0,0,1,1.46-1.016A4.343,4.343,0,0,1,9.9,5.625h6.3V1.875A1.915,1.915,0,0,1,16.727.549a1.75,1.75,0,0,1,2.546,0A1.915,1.915,0,0,1,19.8,1.875v3.75h6.3a4.343,4.343,0,0,1,1.722.356A4.491,4.491,0,0,1,29.282,7a4.7,4.7,0,0,1,.975,1.521,4.855,4.855,0,0,1,.342,1.794ZM14.85,15a2.414,2.414,0,0,0-.379-1.3,2.272,2.272,0,0,0-1.01-.863,2.167,2.167,0,0,0-1.3-.133,2.223,2.223,0,0,0-1.152.641,2.375,2.375,0,0,0-.616,1.2,2.435,2.435,0,0,0,.128,1.354,2.326,2.326,0,0,0,.829,1.052,2.172,2.172,0,0,0,2.111.217,2.245,2.245,0,0,0,.73-.508,2.351,2.351,0,0,0,.488-.76,2.43,2.43,0,0,0,.171-.9Zm-.45,7.5H10.8v1.875h3.6Zm5.4,0H16.2v1.875h3.6ZM25.65,15a2.414,2.414,0,0,0-.379-1.3,2.272,2.272,0,0,0-1.01-.863,2.167,2.167,0,0,0-1.3-.133,2.223,2.223,0,0,0-1.152.641,2.375,2.375,0,0,0-.616,1.2,2.435,2.435,0,0,0,.128,1.354,2.326,2.326,0,0,0,.829,1.052,2.172,2.172,0,0,0,2.111.217,2.245,2.245,0,0,0,.73-.508,2.351,2.351,0,0,0,.488-.76,2.43,2.43,0,0,0,.171-.9Zm-.45,7.5H21.6v1.875h3.6ZM36,15v7.5a1.942,1.942,0,0,1-.136.718,1.881,1.881,0,0,1-.39.609,1.8,1.8,0,0,1-.584.406,1.736,1.736,0,0,1-.689.142H32.4V13.125h1.8a1.736,1.736,0,0,1,.689.142,1.8,1.8,0,0,1,.584.406,1.881,1.881,0,0,1,.39.609A1.942,1.942,0,0,1,36,15Z" transform="translate(1961 1344)" fill="#fff"/>
  </g>
</svg>
